<?xml version="1.0" encoding="UTF-8"?>
<svg xmlns="http://www.w3.org/2000/svg"
     xmlns:xlink="http://www.w3.org/1999/xlink"
     xmlns:gadfly="http://www.gadflyjl.org/ns"
     version="1.2"
     width="240mm" height="120mm" viewBox="0 0 240 120"
     stroke="none"
     fill="#000000"
     stroke-width="0.3"
>
<g class="plotroot xscalable yscalable" id="fig-3b9752fb1b7747a78cbfa22725b3671f-element-1">
  <g font-size="3.88" font-family="'PT Sans','Helvetica Neue','Helvetica',sans-serif" fill="#564A55" stroke="none" id="fig-3b9752fb1b7747a78cbfa22725b3671f-element-2">
    <text x="126.13" y="112" text-anchor="middle">x</text>
  </g>
  <g class="guide xlabels" font-size="2.82" font-family="'PT Sans Caption','Helvetica Neue','Helvetica',sans-serif" fill="#6C606B" id="fig-3b9752fb1b7747a78cbfa22725b3671f-element-3">
    <text x="19.27" y="106.39" text-anchor="middle">-300</text>
    <text x="72.7" y="106.39" text-anchor="middle">-200</text>
    <text x="126.13" y="106.39" text-anchor="middle">-100</text>
    <text x="179.57" y="106.39" text-anchor="middle">0</text>
    <text x="233" y="106.39" text-anchor="middle">100</text>
  </g>
  <g clip-path="url(#fig-3b9752fb1b7747a78cbfa22725b3671f-element-5)" id="fig-3b9752fb1b7747a78cbfa22725b3671f-element-4">
    <g pointer-events="visible" opacity="1" fill="none" stroke="none" class="guide background" id="fig-3b9752fb1b7747a78cbfa22725b3671f-element-6">
      <rect x="17.27" y="5" width="217.73" height="97.72"/>
    </g>
    <g class="guide ygridlines xfixed" stroke-dasharray="0.5,0.5" stroke-width="0.2" stroke="#D0D0E0" id="fig-3b9752fb1b7747a78cbfa22725b3671f-element-7">
      <path d="M17.27,100.72 L 235 100.72"/>
      <path d="M17.27,77.29 L 235 77.29"/>
      <path d="M17.27,53.86 L 235 53.86"/>
      <path d="M17.27,30.43 L 235 30.43"/>
      <path d="M17.27,7 L 235 7"/>
    </g>
    <g class="guide xgridlines yfixed" stroke-dasharray="0.5,0.5" stroke-width="0.2" stroke="#D0D0E0" id="fig-3b9752fb1b7747a78cbfa22725b3671f-element-8">
      <path d="M19.27,5 L 19.27 102.72"/>
      <path d="M72.7,5 L 72.7 102.72"/>
      <path d="M126.13,5 L 126.13 102.72"/>
      <path d="M179.57,5 L 179.57 102.72"/>
      <path d="M233,5 L 233 102.72"/>
    </g>
    <g class="plotpanel" id="fig-3b9752fb1b7747a78cbfa22725b3671f-element-9">
      <g class="geometry" id="fig-3b9752fb1b7747a78cbfa22725b3671f-element-10">
        <g class="color_LCHab{Float64}(70.0,60.0,240.0)" stroke="#FFFFFF" stroke-width="0.3" fill="#00BFFF" id="fig-3b9752fb1b7747a78cbfa22725b3671f-element-11">
          <circle cx="180.28" cy="29.86" r="0.9"/>
          <circle cx="180.16" cy="30.42" r="0.9"/>
          <circle cx="180.29" cy="29.95" r="0.9"/>
          <circle cx="180.27" cy="29.56" r="0.9"/>
          <circle cx="180.19" cy="29.77" r="0.9"/>
          <circle cx="180.25" cy="29.8" r="0.9"/>
          <circle cx="180.2" cy="29.58" r="0.9"/>
          <circle cx="180.2" cy="29.71" r="0.9"/>
          <circle cx="180.25" cy="29.86" r="0.9"/>
          <circle cx="180.15" cy="30.16" r="0.9"/>
          <circle cx="180.26" cy="29.6" r="0.9"/>
          <circle cx="180.15" cy="29.82" r="0.9"/>
          <circle cx="180.1" cy="29.47" r="0.9"/>
          <circle cx="180.26" cy="29.66" r="0.9"/>
          <circle cx="180.12" cy="29.68" r="0.9"/>
          <circle cx="180.23" cy="29.31" r="0.9"/>
          <circle cx="180.16" cy="29.83" r="0.9"/>
          <circle cx="180.3" cy="30.32" r="0.9"/>
          <circle cx="180.24" cy="30.73" r="0.9"/>
          <circle cx="180.28" cy="29.91" r="0.9"/>
          <circle cx="180.2" cy="30.13" r="0.9"/>
          <circle cx="180.24" cy="29.88" r="0.9"/>
          <circle cx="180.26" cy="30.42" r="0.9"/>
          <circle cx="180.29" cy="30.16" r="0.9"/>
          <circle cx="180.32" cy="29.87" r="0.9"/>
          <circle cx="180.29" cy="29.82" r="0.9"/>
          <circle cx="180.3" cy="30.22" r="0.9"/>
          <circle cx="180.27" cy="29.57" r="0.9"/>
          <circle cx="180.27" cy="29.79" r="0.9"/>
          <circle cx="180.19" cy="32.83" r="0.9"/>
          <circle cx="180.06" cy="31.93" r="0.9"/>
          <circle cx="180.08" cy="44.3" r="0.9"/>
          <circle cx="180.29" cy="31.05" r="0.9"/>
          <circle cx="179.81" cy="35.23" r="0.9"/>
          <circle cx="180.24" cy="30.09" r="0.9"/>
          <circle cx="180.28" cy="30.11" r="0.9"/>
          <circle cx="180.28" cy="30.04" r="0.9"/>
          <circle cx="180.25" cy="30.35" r="0.9"/>
          <circle cx="180.29" cy="29.66" r="0.9"/>
          <circle cx="180.28" cy="29.95" r="0.9"/>
          <circle cx="180.29" cy="29.91" r="0.9"/>
          <circle cx="180.3" cy="29.61" r="0.9"/>
          <circle cx="180.29" cy="29.97" r="0.9"/>
          <circle cx="180.29" cy="30.07" r="0.9"/>
          <circle cx="180.22" cy="30.3" r="0.9"/>
          <circle cx="180.27" cy="30.11" r="0.9"/>
          <circle cx="180.29" cy="30.18" r="0.9"/>
          <circle cx="180.33" cy="30.02" r="0.9"/>
          <circle cx="180.16" cy="29.56" r="0.9"/>
          <circle cx="180.11" cy="30.42" r="0.9"/>
          <circle cx="180.3" cy="30.43" r="0.9"/>
          <circle cx="180.21" cy="31.45" r="0.9"/>
          <circle cx="180.27" cy="29.81" r="0.9"/>
          <circle cx="180.27" cy="30.1" r="0.9"/>
          <circle cx="180.3" cy="29.88" r="0.9"/>
          <circle cx="179.89" cy="97.9" r="0.9"/>
          <circle cx="180" cy="29.66" r="0.9"/>
          <circle cx="180.26" cy="29.66" r="0.9"/>
          <circle cx="180.3" cy="29.82" r="0.9"/>
          <circle cx="180.28" cy="30.02" r="0.9"/>
          <circle cx="180.29" cy="30.16" r="0.9"/>
          <circle cx="180.27" cy="30" r="0.9"/>
          <circle cx="180.02" cy="29.42" r="0.9"/>
          <circle cx="180.27" cy="29.53" r="0.9"/>
          <circle cx="180.28" cy="29.72" r="0.9"/>
          <circle cx="180.3" cy="29.62" r="0.9"/>
          <circle cx="180.24" cy="29.64" r="0.9"/>
          <circle cx="180.25" cy="29.56" r="0.9"/>
          <circle cx="180.28" cy="29.73" r="0.9"/>
          <circle cx="180.26" cy="29.76" r="0.9"/>
          <circle cx="180.27" cy="29.62" r="0.9"/>
          <circle cx="180.3" cy="29.76" r="0.9"/>
          <circle cx="180.24" cy="29.55" r="0.9"/>
          <circle cx="180.24" cy="29.73" r="0.9"/>
          <circle cx="179.61" cy="29.24" r="0.9"/>
          <circle cx="180.28" cy="29.98" r="0.9"/>
          <circle cx="180.31" cy="29.55" r="0.9"/>
          <circle cx="180.24" cy="29.6" r="0.9"/>
          <circle cx="180.15" cy="29.54" r="0.9"/>
          <circle cx="180.26" cy="29.62" r="0.9"/>
          <circle cx="180.22" cy="30.1" r="0.9"/>
          <circle cx="180.3" cy="29.52" r="0.9"/>
          <circle cx="180.28" cy="29.66" r="0.9"/>
          <circle cx="180.28" cy="29.56" r="0.9"/>
          <circle cx="180.27" cy="29.88" r="0.9"/>
          <circle cx="180.28" cy="29.92" r="0.9"/>
          <circle cx="180.29" cy="29.75" r="0.9"/>
          <circle cx="180.29" cy="29.4" r="0.9"/>
          <circle cx="180.27" cy="29.57" r="0.9"/>
          <circle cx="180.25" cy="29.77" r="0.9"/>
          <circle cx="180.28" cy="29.84" r="0.9"/>
          <circle cx="180.3" cy="29.66" r="0.9"/>
          <circle cx="180.17" cy="29.61" r="0.9"/>
          <circle cx="180.27" cy="29.36" r="0.9"/>
          <circle cx="180.31" cy="29.49" r="0.9"/>
          <circle cx="180.27" cy="29.54" r="0.9"/>
          <circle cx="180.26" cy="29.95" r="0.9"/>
          <circle cx="180.29" cy="29.67" r="0.9"/>
          <circle cx="180.27" cy="29.42" r="0.9"/>
          <circle cx="180.25" cy="29.96" r="0.9"/>
          <circle cx="180.24" cy="30.26" r="0.9"/>
          <circle cx="180.22" cy="29.67" r="0.9"/>
          <circle cx="180.25" cy="29.83" r="0.9"/>
          <circle cx="180.15" cy="30.36" r="0.9"/>
          <circle cx="180.23" cy="29.75" r="0.9"/>
          <circle cx="180.3" cy="29.88" r="0.9"/>
          <circle cx="180.3" cy="30.42" r="0.9"/>
          <circle cx="180.25" cy="31.5" r="0.9"/>
          <circle cx="180.22" cy="31.69" r="0.9"/>
          <circle cx="180.2" cy="30.05" r="0.9"/>
          <circle cx="180.3" cy="29.69" r="0.9"/>
          <circle cx="72.11" cy="30.17" r="0.9"/>
          <circle cx="180.27" cy="29.78" r="0.9"/>
          <circle cx="180.27" cy="31.13" r="0.9"/>
          <circle cx="180.29" cy="29.79" r="0.9"/>
          <circle cx="180.28" cy="29.62" r="0.9"/>
          <circle cx="180.24" cy="30.33" r="0.9"/>
          <circle cx="180.27" cy="30.14" r="0.9"/>
          <circle cx="180.27" cy="29.94" r="0.9"/>
          <circle cx="180.07" cy="31.14" r="0.9"/>
          <circle cx="180.29" cy="30.45" r="0.9"/>
          <circle cx="180.25" cy="30.17" r="0.9"/>
          <circle cx="180.29" cy="29.61" r="0.9"/>
          <circle cx="180.24" cy="29.59" r="0.9"/>
          <circle cx="180.25" cy="29.54" r="0.9"/>
          <circle cx="180.23" cy="29.94" r="0.9"/>
          <circle cx="180.17" cy="29.91" r="0.9"/>
          <circle cx="180.29" cy="29.69" r="0.9"/>
          <circle cx="180.26" cy="29.78" r="0.9"/>
          <circle cx="180.26" cy="29.71" r="0.9"/>
          <circle cx="180.25" cy="29.53" r="0.9"/>
          <circle cx="180.27" cy="29.63" r="0.9"/>
          <circle cx="180.27" cy="29.61" r="0.9"/>
          <circle cx="180.28" cy="29.73" r="0.9"/>
          <circle cx="180.18" cy="29.53" r="0.9"/>
          <circle cx="180.29" cy="29.67" r="0.9"/>
          <circle cx="180.24" cy="29.58" r="0.9"/>
          <circle cx="180.26" cy="29.61" r="0.9"/>
          <circle cx="180.23" cy="29.4" r="0.9"/>
          <circle cx="180.27" cy="29.57" r="0.9"/>
          <circle cx="180.29" cy="29.61" r="0.9"/>
          <circle cx="180.25" cy="29.8" r="0.9"/>
          <circle cx="180.09" cy="29.44" r="0.9"/>
          <circle cx="180.14" cy="29.29" r="0.9"/>
          <circle cx="180.27" cy="29.57" r="0.9"/>
          <circle cx="180.27" cy="29.48" r="0.9"/>
          <circle cx="180.21" cy="29.53" r="0.9"/>
          <circle cx="180.24" cy="29.62" r="0.9"/>
          <circle cx="180.29" cy="30.27" r="0.9"/>
          <circle cx="180.2" cy="29.52" r="0.9"/>
          <circle cx="180.26" cy="29.46" r="0.9"/>
          <circle cx="180.28" cy="29.52" r="0.9"/>
          <circle cx="180.27" cy="29.55" r="0.9"/>
          <circle cx="180.28" cy="29.52" r="0.9"/>
          <circle cx="180.23" cy="30.04" r="0.9"/>
          <circle cx="180.26" cy="29.55" r="0.9"/>
          <circle cx="180.29" cy="29.6" r="0.9"/>
          <circle cx="180.26" cy="29.35" r="0.9"/>
          <circle cx="180.28" cy="29.62" r="0.9"/>
          <circle cx="180.27" cy="29.42" r="0.9"/>
          <circle cx="180.27" cy="29.63" r="0.9"/>
        </g>
      </g>
    </g>
  </g>
  <g class="guide ylabels" font-size="2.82" font-family="'PT Sans Caption','Helvetica Neue','Helvetica',sans-serif" fill="#6C606B" id="fig-3b9752fb1b7747a78cbfa22725b3671f-element-12">
    <text x="16.27" y="100.72" text-anchor="end" dy="0.35em">-75</text>
    <text x="16.27" y="77.29" text-anchor="end" dy="0.35em">-50</text>
    <text x="16.27" y="53.86" text-anchor="end" dy="0.35em">-25</text>
    <text x="16.27" y="30.43" text-anchor="end" dy="0.35em">0</text>
    <text x="16.27" y="7" text-anchor="end" dy="0.35em">25</text>
  </g>
  <g font-size="3.88" font-family="'PT Sans','Helvetica Neue','Helvetica',sans-serif" fill="#564A55" stroke="none" id="fig-3b9752fb1b7747a78cbfa22725b3671f-element-13">
    <text x="8.81" y="53.86" text-anchor="end" dy="0.35em">y</text>
  </g>
</g>
<defs>
<clipPath id="fig-3b9752fb1b7747a78cbfa22725b3671f-element-5">
  <path d="M17.27,5 L 235 5 235 102.72 17.27 102.72" />
</clipPath
></defs>
</svg>
