<?xml version="1.0" encoding="UTF-8"?>
<svg xmlns="http://www.w3.org/2000/svg"
     xmlns:xlink="http://www.w3.org/1999/xlink"
     xmlns:gadfly="http://www.gadflyjl.org/ns"
     version="1.2"
     width="240mm" height="120mm" viewBox="0 0 240 120"
     stroke="none"
     fill="#000000"
     stroke-width="0.3"
>
<g class="plotroot xscalable yscalable" id="fig-8997dc0c2f3144889360c3ab4c644718-element-1">
  <g font-size="3.88" font-family="'PT Sans','Helvetica Neue','Helvetica',sans-serif" fill="#564A55" stroke="none" id="fig-8997dc0c2f3144889360c3ab4c644718-element-2">
    <text x="122.67" y="112" text-anchor="middle">x</text>
  </g>
  <g class="guide xlabels" font-size="2.82" font-family="'PT Sans Caption','Helvetica Neue','Helvetica',sans-serif" fill="#6C606B" id="fig-8997dc0c2f3144889360c3ab4c644718-element-3">
    <text x="12.35" y="106.39" text-anchor="middle">-0.5</text>
    <text x="67.51" y="106.39" text-anchor="middle">0.0</text>
    <text x="122.67" y="106.39" text-anchor="middle">0.5</text>
    <text x="177.84" y="106.39" text-anchor="middle">1.0</text>
    <text x="233" y="106.39" text-anchor="middle">1.5</text>
  </g>
  <g clip-path="url(#fig-8997dc0c2f3144889360c3ab4c644718-element-5)" id="fig-8997dc0c2f3144889360c3ab4c644718-element-4">
    <g pointer-events="visible" opacity="1" fill="none" stroke="none" class="guide background" id="fig-8997dc0c2f3144889360c3ab4c644718-element-6">
      <rect x="10.35" y="5" width="224.65" height="97.72"/>
    </g>
    <g class="guide ygridlines xfixed" stroke-dasharray="0.5,0.5" stroke-width="0.2" stroke="#D0D0E0" id="fig-8997dc0c2f3144889360c3ab4c644718-element-7">
      <path d="M10.35,100.72 L 235 100.72"/>
      <path d="M10.35,77.29 L 235 77.29"/>
      <path d="M10.35,53.86 L 235 53.86"/>
      <path d="M10.35,30.43 L 235 30.43"/>
      <path d="M10.35,7 L 235 7"/>
    </g>
    <g class="guide xgridlines yfixed" stroke-dasharray="0.5,0.5" stroke-width="0.2" stroke="#D0D0E0" id="fig-8997dc0c2f3144889360c3ab4c644718-element-8">
      <path d="M12.35,5 L 12.35 102.72"/>
      <path d="M67.51,5 L 67.51 102.72"/>
      <path d="M122.67,5 L 122.67 102.72"/>
      <path d="M177.84,5 L 177.84 102.72"/>
      <path d="M233,5 L 233 102.72"/>
    </g>
    <g class="plotpanel" id="fig-8997dc0c2f3144889360c3ab4c644718-element-9">
      <g stroke="none" fill="#00BFFF" shape-rendering="crispEdges" id="fig-8997dc0c2f3144889360c3ab4c644718-element-10">
        <g class="geometry" id="fig-8997dc0c2f3144889360c3ab4c644718-element-11">
          <rect x="44.77" y="96.03" width="0.91" height="4.69"/>
          <rect x="45.67" y="100.72" width="0.91" height="0.01"/>
          <rect x="46.58" y="96.03" width="0.91" height="4.69"/>
          <rect x="47.48" y="96.03" width="0.91" height="4.69"/>
          <rect x="48.39" y="100.72" width="0.91" height="0.01"/>
          <rect x="49.29" y="100.72" width="0.91" height="0.01"/>
          <rect x="50.2" y="100.72" width="0.91" height="0.01"/>
          <rect x="51.1" y="100.72" width="0.91" height="0.01"/>
          <rect x="52.01" y="77.29" width="0.91" height="23.43"/>
          <rect x="52.91" y="91.34" width="0.91" height="9.37"/>
          <rect x="53.82" y="96.03" width="0.91" height="4.69"/>
          <rect x="54.72" y="96.03" width="0.91" height="4.69"/>
          <rect x="55.63" y="96.03" width="0.91" height="4.69"/>
          <rect x="56.53" y="96.03" width="0.91" height="4.69"/>
          <rect x="57.44" y="86.66" width="0.91" height="14.06"/>
          <rect x="58.34" y="81.97" width="0.91" height="18.74"/>
          <rect x="59.25" y="81.97" width="0.91" height="18.74"/>
          <rect x="60.15" y="91.34" width="0.91" height="9.37"/>
          <rect x="61.06" y="77.29" width="0.91" height="23.43"/>
          <rect x="61.97" y="96.03" width="0.91" height="4.69"/>
          <rect x="62.87" y="72.6" width="0.91" height="28.11"/>
          <rect x="63.78" y="91.34" width="0.91" height="9.37"/>
          <rect x="64.68" y="81.97" width="0.91" height="18.74"/>
          <rect x="65.59" y="25.74" width="0.91" height="74.97"/>
          <rect x="66.49" y="77.29" width="0.91" height="23.43"/>
          <rect x="67.4" y="44.49" width="0.91" height="56.23"/>
          <rect x="68.3" y="86.66" width="0.91" height="14.06"/>
          <rect x="69.21" y="86.66" width="0.91" height="14.06"/>
          <rect x="70.11" y="81.97" width="0.91" height="18.74"/>
          <rect x="71.02" y="67.91" width="0.91" height="32.8"/>
          <rect x="71.92" y="53.86" width="0.91" height="46.86"/>
          <rect x="72.83" y="81.97" width="0.91" height="18.74"/>
          <rect x="73.73" y="81.97" width="0.91" height="18.74"/>
          <rect x="74.64" y="81.97" width="0.91" height="18.74"/>
          <rect x="75.54" y="67.91" width="0.91" height="32.8"/>
          <rect x="76.45" y="96.03" width="0.91" height="4.69"/>
          <rect x="77.35" y="81.97" width="0.91" height="18.74"/>
          <rect x="78.26" y="91.34" width="0.91" height="9.37"/>
          <rect x="79.16" y="91.34" width="0.91" height="9.37"/>
          <rect x="80.07" y="81.97" width="0.91" height="18.74"/>
          <rect x="80.98" y="100.72" width="0.91" height="0.01"/>
          <rect x="81.88" y="91.34" width="0.91" height="9.37"/>
          <rect x="82.79" y="96.03" width="0.91" height="4.69"/>
          <rect x="83.69" y="86.66" width="0.91" height="14.06"/>
          <rect x="84.6" y="96.03" width="0.91" height="4.69"/>
          <rect x="85.5" y="77.29" width="0.91" height="23.43"/>
          <rect x="86.41" y="91.34" width="0.91" height="9.37"/>
          <rect x="87.31" y="96.03" width="0.91" height="4.69"/>
          <rect x="88.22" y="96.03" width="0.91" height="4.69"/>
          <rect x="89.12" y="100.72" width="0.91" height="0.01"/>
          <rect x="90.03" y="100.72" width="0.91" height="0.01"/>
          <rect x="90.93" y="96.03" width="0.91" height="4.69"/>
          <rect x="91.84" y="100.72" width="0.91" height="0.01"/>
          <rect x="92.74" y="96.03" width="0.91" height="4.69"/>
          <rect x="93.65" y="100.72" width="0.91" height="0.01"/>
          <rect x="94.55" y="96.03" width="0.91" height="4.69"/>
          <rect x="95.46" y="100.72" width="0.91" height="0.01"/>
          <rect x="96.36" y="96.03" width="0.91" height="4.69"/>
          <rect x="97.27" y="100.72" width="0.91" height="0.01"/>
          <rect x="98.18" y="100.72" width="0.91" height="0.01"/>
          <rect x="99.08" y="96.03" width="0.91" height="4.69"/>
          <rect x="99.99" y="100.72" width="0.91" height="0.01"/>
          <rect x="100.89" y="100.72" width="0.91" height="0.01"/>
          <rect x="101.8" y="100.72" width="0.91" height="0.01"/>
          <rect x="102.7" y="100.72" width="0.91" height="0.01"/>
          <rect x="103.61" y="100.72" width="0.91" height="0.01"/>
          <rect x="104.51" y="96.03" width="0.91" height="4.69"/>
          <rect x="105.42" y="100.72" width="0.91" height="0.01"/>
          <rect x="106.32" y="100.72" width="0.91" height="0.01"/>
          <rect x="107.23" y="100.72" width="0.91" height="0.01"/>
          <rect x="108.13" y="96.03" width="0.91" height="4.69"/>
          <rect x="109.04" y="100.72" width="0.91" height="0.01"/>
          <rect x="109.94" y="100.72" width="0.91" height="0.01"/>
          <rect x="110.85" y="100.72" width="0.91" height="0.01"/>
          <rect x="111.75" y="96.03" width="0.91" height="4.69"/>
          <rect x="112.66" y="100.72" width="0.91" height="0.01"/>
          <rect x="113.56" y="100.72" width="0.91" height="0.01"/>
          <rect x="114.47" y="100.72" width="0.91" height="0.01"/>
          <rect x="115.37" y="100.72" width="0.91" height="0.01"/>
          <rect x="116.28" y="100.72" width="0.91" height="0.01"/>
          <rect x="117.19" y="100.72" width="0.91" height="0.01"/>
          <rect x="118.09" y="100.72" width="0.91" height="0.01"/>
          <rect x="119" y="100.72" width="0.91" height="0.01"/>
          <rect x="119.9" y="100.72" width="0.91" height="0.01"/>
          <rect x="120.81" y="100.72" width="0.91" height="0.01"/>
          <rect x="121.71" y="100.72" width="0.91" height="0.01"/>
          <rect x="122.62" y="100.72" width="0.91" height="0.01"/>
          <rect x="123.52" y="100.72" width="0.91" height="0.01"/>
          <rect x="124.43" y="100.72" width="0.91" height="0.01"/>
          <rect x="125.33" y="100.72" width="0.91" height="0.01"/>
          <rect x="126.24" y="100.72" width="0.91" height="0.01"/>
          <rect x="127.14" y="100.72" width="0.91" height="0.01"/>
          <rect x="128.05" y="100.72" width="0.91" height="0.01"/>
          <rect x="128.95" y="100.72" width="0.91" height="0.01"/>
          <rect x="129.86" y="100.72" width="0.91" height="0.01"/>
          <rect x="130.76" y="100.72" width="0.91" height="0.01"/>
          <rect x="131.67" y="100.72" width="0.91" height="0.01"/>
          <rect x="132.57" y="100.72" width="0.91" height="0.01"/>
          <rect x="133.48" y="100.72" width="0.91" height="0.01"/>
          <rect x="134.38" y="100.72" width="0.91" height="0.01"/>
          <rect x="135.29" y="100.72" width="0.91" height="0.01"/>
          <rect x="136.2" y="100.72" width="0.91" height="0.01"/>
          <rect x="137.1" y="100.72" width="0.91" height="0.01"/>
          <rect x="138.01" y="100.72" width="0.91" height="0.01"/>
          <rect x="138.91" y="100.72" width="0.91" height="0.01"/>
          <rect x="139.82" y="100.72" width="0.91" height="0.01"/>
          <rect x="140.72" y="100.72" width="0.91" height="0.01"/>
          <rect x="141.63" y="100.72" width="0.91" height="0.01"/>
          <rect x="142.53" y="100.72" width="0.91" height="0.01"/>
          <rect x="143.44" y="100.72" width="0.91" height="0.01"/>
          <rect x="144.34" y="100.72" width="0.91" height="0.01"/>
          <rect x="145.25" y="100.72" width="0.91" height="0.01"/>
          <rect x="146.15" y="100.72" width="0.91" height="0.01"/>
          <rect x="147.06" y="100.72" width="0.91" height="0.01"/>
          <rect x="147.96" y="100.72" width="0.91" height="0.01"/>
          <rect x="148.87" y="100.72" width="0.91" height="0.01"/>
          <rect x="149.77" y="100.72" width="0.91" height="0.01"/>
          <rect x="150.68" y="100.72" width="0.91" height="0.01"/>
          <rect x="151.58" y="100.72" width="0.91" height="0.01"/>
          <rect x="152.49" y="100.72" width="0.91" height="0.01"/>
          <rect x="153.4" y="100.72" width="0.91" height="0.01"/>
          <rect x="154.3" y="100.72" width="0.91" height="0.01"/>
          <rect x="155.21" y="100.72" width="0.91" height="0.01"/>
          <rect x="156.11" y="100.72" width="0.91" height="0.01"/>
          <rect x="157.02" y="100.72" width="0.91" height="0.01"/>
          <rect x="157.92" y="100.72" width="0.91" height="0.01"/>
          <rect x="158.83" y="100.72" width="0.91" height="0.01"/>
          <rect x="159.73" y="100.72" width="0.91" height="0.01"/>
          <rect x="160.64" y="100.72" width="0.91" height="0.01"/>
          <rect x="161.54" y="100.72" width="0.91" height="0.01"/>
          <rect x="162.45" y="100.72" width="0.91" height="0.01"/>
          <rect x="163.35" y="100.72" width="0.91" height="0.01"/>
          <rect x="164.26" y="100.72" width="0.91" height="0.01"/>
          <rect x="165.16" y="100.72" width="0.91" height="0.01"/>
          <rect x="166.07" y="100.72" width="0.91" height="0.01"/>
          <rect x="166.97" y="100.72" width="0.91" height="0.01"/>
          <rect x="167.88" y="100.72" width="0.91" height="0.01"/>
          <rect x="168.78" y="100.72" width="0.91" height="0.01"/>
          <rect x="169.69" y="100.72" width="0.91" height="0.01"/>
          <rect x="170.59" y="100.72" width="0.91" height="0.01"/>
          <rect x="171.5" y="100.72" width="0.91" height="0.01"/>
          <rect x="172.41" y="100.72" width="0.91" height="0.01"/>
          <rect x="173.31" y="100.72" width="0.91" height="0.01"/>
          <rect x="174.22" y="100.72" width="0.91" height="0.01"/>
          <rect x="175.12" y="100.72" width="0.91" height="0.01"/>
          <rect x="176.03" y="100.72" width="0.91" height="0.01"/>
          <rect x="176.93" y="96.03" width="0.91" height="4.69"/>
        </g>
      </g>
    </g>
  </g>
  <g class="guide ylabels" font-size="2.82" font-family="'PT Sans Caption','Helvetica Neue','Helvetica',sans-serif" fill="#6C606B" id="fig-8997dc0c2f3144889360c3ab4c644718-element-12">
    <text x="9.35" y="100.72" text-anchor="end" dy="0.35em">0</text>
    <text x="9.35" y="77.29" text-anchor="end" dy="0.35em">5</text>
    <text x="9.35" y="53.86" text-anchor="end" dy="0.35em">10</text>
    <text x="9.35" y="30.43" text-anchor="end" dy="0.35em">15</text>
    <text x="9.35" y="7" text-anchor="end" dy="0.35em">20</text>
  </g>
</g>
<defs>
<clipPath id="fig-8997dc0c2f3144889360c3ab4c644718-element-5">
  <path d="M10.35,5 L 235 5 235 102.72 10.35 102.72" />
</clipPath
></defs>
</svg>
